<?xml version="1.0" encoding="utf-8"?>
<!-- Generator: Adobe Illustrator 21.1.0, SVG Export Plug-In . SVG Version: 6.00 Build 0)  -->
<svg version="1.1" id="Layer_1" xmlns="http://www.w3.org/2000/svg" xmlns:xlink="http://www.w3.org/1999/xlink" x="0px" y="0px"
	 viewBox="0 0 608.2 417.1" style="enable-background:new 0 0 608.2 417.1;" xml:space="preserve">
<style type="text/css">
	.st0{fill:#FFFFFF;}
</style>
<g>
	
		<image style="overflow:visible;opacity:0.75;" width="529" height="373" xlink:href="245222528163A35D.png"  transform="matrix(1 0 0 1 40.0974 22)">
	</image>
	<g>
		<path class="st0" d="M493.2,135.4c-0.3-1.6-1.9-7.4-6.8-11.7c-7.7-6.7-15.2-4.5-19-0.2c-5,5.7-3,12.6-0.1,18.4
			c2.6,5.2,3.2,8.7,1.1,11.2c-1.8,2.1-5.2,2.1-7.7-0.1c-3.1-2.7-4.5-9-4.7-9.4c-0.2-0.7-1-1.4-1.9-1.1l-4.4,1.5
			c-1.1,0.4-1.1,0.9-1,1.7c0.2,1.8,1.2,7.8,7.3,13.1c6.8,6,15.1,5.2,19.5,0.2c5.5-6.2,2.5-13.8-0.5-19.8c-2.5-5-2.9-8.1-1-10.4
			c1.4-1.6,4.5-2.1,7.2,0.3c2.6,2.3,4.2,8,4.4,8.5c0.2,0.9,1.3,1.2,2.2,0.9l4.3-1.2C492.9,137,493.5,136.1,493.2,135.4z M451.9,99.6
			c-2.3-1.3-4.9-0.5-6.1,1.5c-1.2,2.1-0.4,4.6,1.7,5.8c0.9,0.5,1.8,0.6,1.8,0.7c-2.2,3.9-6.9,4.6-7.6,4.7c-0.6,0.1-1,0.6-0.8,1.2
			l0.3,1.2c0.2,0.7,0.6,0.9,1.3,0.8c2.2-0.5,7.6-1.8,10.7-7.3C455.8,103.6,453.9,100.7,451.9,99.6z M365.5,182.9v1.9
			c0,1.1,0.9,1.9,1.9,1.9H439c1.1,0,1.9-0.9,1.9-1.9v-1.9c0-1.1-0.9-1.9-1.9-1.9h-71.6C366.3,181,365.5,181.8,365.5,182.9z
			 M427.3,93.4c-2.9-4.9-7.4-8.9-12.8-10.8c-12.1-4.2-25.2,2.2-29.4,14.3c-4.2,12.1,2.2,25.1,14.2,29.3c8.8,3.1,16.4,1.3,16.4,1.3
			c0.3-0.1,0.7-0.3,0.8-0.8l5.4-15.6c0.2-0.6-0.1-1.3-0.7-1.5l-11.7-4.1c-0.7-0.2-1.3,0.1-1.6,0.8l-1.6,4.8
			c-0.2,0.6,0.1,1.2,0.8,1.5l4.9,1.7l-1.8,5.1c-1.4,0.1-4.3,0.2-7.7-1c-7.6-2.6-11.4-11.1-8.8-18.6c2.6-7.6,10.9-12,18.5-9.4
			c3.3,1.2,6.1,3.5,7.9,6.7c0.4,0.7,0.9,0.9,1.6,0.5l5.1-2.6C427.4,94.8,427.6,94.1,427.3,93.4z M367.8,70.3l-5.9-0.8
			c-0.7-0.1-1.3,0.4-1.4,1.1L357,96.9h-0.1l-22.7-31.7l-1.6-0.2c-0.6-0.1-1.3,0.4-1.3,1l-5.7,42.8c-0.1,0.6,0.4,1.3,1.1,1.4l5.8,0.8
			c0.7,0.1,1.3-0.4,1.4-1.1l3.6-27.4h0.1l22.7,32.8l1.5,0.2c0.6,0.1,1.3-0.3,1.4-1l5.7-42.8C368.9,71,368.4,70.4,367.8,70.3z
			 M355.1,250.1v1.9c0,1.1,0.9,1.9,1.9,1.9h71.6c1.1,0,1.9-0.9,1.9-1.9v-1.9c0-1.1-0.9-1.9-1.9-1.9H357
			C356,248.2,355.1,249.1,355.1,250.1z M306.4,66.1c0-0.6-0.6-1.2-1.2-1.2l-6,0.1c-0.6,0-1.2,0.6-1.2,1.2l0.4,42.5
			c0,0.6,0.6,1.2,1.2,1.2l6-0.1c0.7,0,1.2-0.6,1.2-1.2L306.4,66.1z M284.2,103.6c-0.1-0.6-0.7-1.2-1.4-1.1l-16.3,1.8l-4-35.8
			c-0.1-0.7-0.7-1.2-1.3-1.1l-5.9,0.7c-0.7,0.1-1.2,0.7-1.1,1.3l4.7,42.3c0.1,0.6,0.6,1.2,1.3,1.1l23.4-2.6c0.7-0.1,1.1-0.7,1.1-1.3
			L284.2,103.6z M346.2,196.6c0-0.2,0-0.4,0-0.7c-0.3-23-19-41.4-42.1-41.4c-23,0-41.8,18.5-42.1,41.4v0.7c-4.8,0-8.7,3.9-8.7,8.7
			s3.9,8.7,8.7,8.7h84.2c4.8,0,8.7-3.9,8.7-8.7S351,196.6,346.2,196.6z M261.9,219.8L304,305l42.1-85.2H261.9z M177.6,250.1v1.9
			c0,1.1,0.9,1.9,1.9,1.9h71.6c1.1,0,1.9-0.9,1.9-1.9v-1.9c0-1.1-0.9-1.9-1.9-1.9h-71.6C178.5,248.2,177.6,249.1,177.6,250.1z
			 M167.3,182.9v1.9c0,1.1,0.9,1.9,1.9,1.9h71.6c1.1,0,1.9-0.9,1.9-1.9v-1.9c0-1.1-0.9-1.9-1.9-1.9h-71.6
			C168.1,181,167.3,181.8,167.3,182.9z M242.1,113.6l-12.8-13.4c4.8-3.6,7.3-9.3,5.7-15c-2-7.4-9.7-11.7-17.2-9.6l-17.7,4.9
			c-0.7,0.2-1,0.9-0.8,1.5l11.3,41c0.2,0.6,0.8,1,1.5,0.8l5.7-1.6c0.6-0.2,1-0.9,0.8-1.5l-4.4-15.8l6.9-1.8l12.8,14.1
			c0.2,0.2,0.6,0.4,1.2,0.3l6.5-1.8C242.6,115.4,242.8,114.3,242.1,113.6z M222.6,95.5l-10.1,2.8L209.1,86l10.1-2.8
			c3.3-0.9,6.9,1,7.8,4.3C227.9,91,225.9,94.6,222.6,95.5z M198.4,126.4l-37.8-28.8c-0.4-0.2-0.7-0.4-1.3-0.1l-0.6,0.3
			c-0.5,0.3-0.7,0.7-0.7,1.1l2.7,47.5c0.1,0.9,0.9,1.4,1.8,1l4.9-2.6c0.9-0.5,1.1-1.3,1-2l-0.3-7.7l17-9l6,4.6
			c0.8,0.6,1.4,0.7,2.2,0.3l4.9-2.6C199.1,127.9,199.2,126.9,198.4,126.4z M167.5,127.4l-1.1-15.4l0.2-0.1l12.3,9.5L167.5,127.4z
			 M145.5,144.7l-20.7-22.2c-0.4-0.5-1.2-0.5-1.7-0.1l-4.4,4.1c-0.5,0.5-0.5,1.3-0.1,1.7l20.7,22.2c3,3.2,2.5,6.5,0.7,8.2
			c-1.6,1.5-3.3,1.5-4.5,1.4c-0.8,0-1.4,0.3-1.5,1.3l-0.1,4.8c0,0.6,0.4,1.1,1,1.3c1.7,0.2,6.3,0.6,10.3-3.2
			C150.7,159,151.6,151.2,145.5,144.7z M100.7,216v1.9c0,1.1,0.9,1.9,1.9,1.9h131c1.1,0,1.9-0.9,1.9-1.9V216c0-1.1-0.9-1.9-1.9-1.9
			h-131C101.5,214.1,100.7,214.9,100.7,216z M160.2,280.1c-2.9-2.4-6.6-3.7-10.3-3.7c-5,0-9.6,2.2-12.8,6.1c-5.7,7-4.5,17.3,2.5,23
			c2.9,2.3,6.3,3.6,10,3.6c0.5,0,1,0,1.4-0.1c0.5-0.1,1-0.4,1.3-0.8s0.4-0.8,0.2-1.3l-0.2-1.6v-0.1v-0.1c-0.2-0.7-0.9-1.2-1.8-1.2
			c-2.9-0.1-5.2-0.3-7.8-2.4c-4.7-3.8-5.4-10.9-1.4-15.7c2.2-2.7,5.5-4.3,8.9-4.3c2.5,0,4.8,0.8,6.7,2.4c2,1.6,3.5,4.3,4,7.1
			c0.1,1.4,1.2,1.6,1.5,1.6c0.1,0,0.2,0,0.4,0l1.6-0.2c1-0.1,1.7-1,1.6-2C165.2,285.8,163.4,282.7,160.2,280.1z M196.5,302l-1.5-0.7
			c-0.2-0.1-0.5-0.2-0.8-0.2c-0.7,0-1.3,0.4-1.6,1l-8,16.1c-1.4,2.8-3.8,4.5-6.5,4.5c-1.1,0-2.2-0.3-3.4-0.8c-1.9-1-3.2-2.4-3.7-4.3
			c-0.5-1.8-0.2-3.9,0.8-5.8l8-16c0.2-0.4,0.2-0.9,0.1-1.4c-0.2-0.4-0.5-0.8-0.9-1l-1.5-0.7c-0.2-0.1-0.5-0.2-0.8-0.2
			c-0.7,0-1.3,0.4-1.6,1l-8.1,16.2c-1.5,3.1-1.9,6.4-0.9,9.4c1,3.1,3.2,5.6,6.3,7.2c1.9,0.9,3.8,1.4,5.8,1.4c4.6,0,8.6-2.6,10.8-7
			l8.1-16.2C197.8,303.5,197.4,302.4,196.5,302z M224.1,313.7c-0.3-0.4-2.7-3.3-6.7-4.6c-1.3-0.4-2.6-0.7-3.9-0.7
			c-4.5,0-7.4,2.9-8.3,5.7c-1.8,5.5,1.1,8.6,4.7,11.8c4.2,3.6,5.5,5.6,4.8,7.7c-0.5,1.5-2,2.4-3.8,2.4c-0.6,0-1.3-0.1-1.9-0.3
			c-2.7-0.9-4.5-3.4-5.3-4.8l-0.1-0.1c-0.5-0.8-1.1-0.9-1.5-0.9c-0.6,0-1.1,0.3-1.4,0.5c-0.1,0.1-0.3,0.2-0.4,0.3
			c-0.1,0.1-0.3,0.2-0.4,0.3h-0.1h-0.1c-1.3,1.1-0.7,2.3-0.4,2.7c0.5,0.8,3,4.9,8.1,6.5c1.2,0.4,2.5,0.6,3.7,0.6
			c4.2,0,7.6-2.2,8.7-5.7c1.8-5.5-1.9-9.2-6.4-13c-3.1-2.6-4-4.4-3.4-6.5c0.4-1.1,1.6-2.4,3.7-2.4c0.7,0,1.4,0.1,2.2,0.4
			c0.9,0.3,2.4,1.1,4.2,3.2l0.1,0.1c0.5,0.5,1,0.7,1.5,0.7s0.9-0.2,1.4-0.6c0.1-0.1,0.2-0.2,0.4-0.3c0.1-0.1,0.2-0.2,0.3-0.3
			c0.7-0.6,0.8-1.1,0.8-1.5C224.6,314.5,224.4,314,224.1,313.7z M254.7,319.2c-0.2-0.4-0.7-0.7-1.1-0.8l-17.8-3.6
			c-0.1,0-0.2,0-0.3,0c-0.8,0-1.6,0.6-1.7,1.4l-0.2,1.2c-0.1,0.5,0,0.9,0.2,1.3c0.3,0.4,0.7,0.7,1.2,0.8l6.3,1.3l-5.1,24.8
			c-0.1,0.5,0,0.9,0.3,1.3s0.7,0.7,1.1,0.7l1.6,0.3c0.1,0,0.2,0,0.3,0c0.8,0,1.6-0.6,1.7-1.4l5.1-24.8l6.4,1.3c0.1,0,0.2,0,0.4,0
			c0.8,0,1.6-0.6,1.7-1.4l0.2-1.2C255,320.1,254.9,319.6,254.7,319.2z M284.9,351.7l-10-30c-0.3-0.7-0.8-1.1-1.5-1.2H273
			c-0.1,0-0.1,0-0.2,0c-0.6,0-1.1,0.3-1.5,0.9l-15.9,27.4c-0.3,0.5-0.3,1.2-0.1,1.7c0.3,0.5,0.8,0.9,1.4,0.9l1.7,0.2l0,0h0.1
			c0.7,0,1.2-0.4,1.5-0.9l3.5-6.1l13.9,1.4l2.3,6.7c0.1,0.5,0.7,1.1,1.5,1.2l1.7,0.2c0.1,0,0.1,0,0.2,0c0.6,0,1.1-0.3,1.4-0.7
			C285,352.8,285.1,352.2,284.9,351.7z M266.2,340.1l6-10.6c0.6,1.9,1.2,3.8,1.9,5.7c0.6,2,1.3,4,1.9,5.9L266.2,340.1z M314.6,341.6
			c3.6-1.9,5.9-5.4,5.8-9.3c-0.1-5.6-4.6-9.9-10.3-9.9H310l-11.1,0.2c-0.5,0-0.9,0.2-1.2,0.5c-0.3,0.3-0.5,0.8-0.5,1.3l0.4,28.3
			c0,1,0.8,1.7,1.8,1.7h1.7c1,0,1.8-0.8,1.8-1.8l-0.1-10l6.6-0.1l5.6,10.7c0.2,0.4,0.7,0.9,1.5,0.9h2.2c0.7,0,1.2-0.3,1.5-0.9
			c0.3-0.5,0.3-1.2,0-1.8L314.6,341.6z M310,337.8l-7.3,0.1l-0.1-10.4l7.3-0.1c2.8,0,5.2,2.3,5.3,5
			C315.2,335.4,312.9,337.8,310,337.8z M360.7,333.6c-1-7.8-7.8-13.8-15.8-13.8c-0.7,0-1.4,0-2.1,0.1l-9.5,1.3
			c-0.5,0.1-0.9,0.3-1.2,0.7c-0.2,0.4-0.4,0.8-0.3,1.3l3.8,28.1c0.1,0.9,0.9,1.6,1.7,1.6h0.1h0.2l9.5-1.3c4.2-0.6,8-2.7,10.6-6.1
			C360.2,342,361.3,337.8,360.7,333.6z M345.7,346.8l-5.4,0.7l-3-22l5.4-0.7c0.6-0.1,1.2-0.1,1.7-0.1c5.7,0,10,3.9,10.8,9.6
			C356.2,340.8,352.2,346,345.7,346.8z M419.2,327.3c-0.2-0.4-0.5-0.7-1-0.9l-1.5-0.6h-0.1h-0.1c-0.1,0-0.3-0.1-0.4-0.1
			c-0.4,0-1,0.1-1.6,1c-1.6,2.4-3,4.2-6.1,5.4c-1.2,0.4-2.4,0.6-3.6,0.6c-4.7,0-8.9-3.1-10.5-7.6c-2.1-5.9,0.8-12.4,6.5-14.4
			c1.1-0.4,2.3-0.6,3.6-0.6c1.5,0,3.1,0.3,4.5,0.9c0.3,0.1,0.6,0.2,0.9,0.2s1.1-0.1,1.4-1.1l0.7-1.4c0.2-0.4,0.2-1,0-1.4
			s-0.5-0.8-0.9-1c-2.3-0.9-4.4-1.3-6.4-1.3c-1.8,0-3.6,0.3-5.4,1c-4.1,1.5-7.5,4.5-9.3,8.4c-1.9,4-2.1,8.4-0.6,12.6
			c2.3,6.5,8.5,10.9,15.4,10.9c1.9,0,3.8-0.3,5.6-1c4-1.4,7.1-4.2,8.9-7.9C419.4,328.4,419.4,327.8,419.2,327.3z M449.7,303.8
			l-9-15.7c-0.3-0.5-0.9-0.9-1.6-0.9c-0.3,0-0.6,0.1-0.9,0.2l-1.4,0.8c-0.4,0.2-0.7,0.6-0.8,1.1c-0.1,0.5-0.1,1,0.2,1.4l8.9,15.6
			c2.3,4,1.3,8.1-2.5,10.2c-1.2,0.7-2.4,1-3.5,1c-2.6,0-4.9-1.5-6.4-4.2l-8.8-15.5c-0.3-0.6-0.9-0.9-1.6-0.9c-0.3,0-0.6,0.1-0.9,0.2
			l-1.4,0.8c-0.4,0.2-0.7,0.6-0.8,1.1c-0.1,0.5-0.1,1,0.2,1.3l9,15.7c2.3,4,6.3,6.5,10.5,6.5c2.1,0,4.2-0.6,6.3-1.7
			c3-1.7,5.2-4.4,6-7.5C451.9,310.1,451.4,306.8,449.7,303.8z M466.8,291.8l4.5-4.1c2.1-1.9,3.2-4.5,3.4-7.3
			c0.1-2.8-0.9-5.5-2.8-7.6s-4.7-3.3-7.7-3.3c-2.7,0-5.2,1-7.2,2.8l-7,6.4c-0.4,0.3-0.6,0.8-0.6,1.3s0.2,0.9,0.5,1.2l19.2,20.9
			c0.3,0.4,0.8,0.6,1.3,0.6c0.4,0,0.9-0.2,1.2-0.5l1.2-1.1c0.7-0.6,0.7-1.8,0.1-2.5L466.8,291.8z M456,280.2l4.3-4
			c1.1-1,2.5-1.5,3.9-1.5s2.7,0.6,3.7,1.6c2.1,2.3,2,5.8-0.3,7.9l-4.3,4L456,280.2z M372.8,216v1.9c0,1.1,0.9,1.9,1.9,1.9h131
			c1.1,0,1.9-0.9,1.9-1.9V216c0-1.1-0.9-1.9-1.9-1.9h-131C373.6,214.1,372.8,214.9,372.8,216z M304.7,380
			C167.5,380,56,303.1,56,208.5S167.5,37.1,304.7,37.1c137.1,0,248.7,76.9,248.7,171.4S441.8,380,304.7,380z M304.7,42.9
			c-134,0-243,74.3-243,165.6s109,165.7,242.9,165.7c134,0,242.9-74.3,242.9-165.7S438.6,42.9,304.7,42.9z"/>
	</g>
</g>
</svg>
