<?xml version="1.0" encoding="utf-8"?>
<!-- Generator: Adobe Illustrator 21.1.0, SVG Export Plug-In . SVG Version: 6.00 Build 0)  -->
<svg version="1.1" id="Layer_1" xmlns="http://www.w3.org/2000/svg" xmlns:xlink="http://www.w3.org/1999/xlink" x="0px" y="0px"
	 viewBox="0 0 500 342.9" style="enable-background:new 0 0 500 342.9;" xml:space="preserve">
<style type="text/css">
	.st0{fill:#FFFFFF;}
</style>
<path class="st0" d="M439.1,98.3c-0.3-1.6-1.9-7.4-6.8-11.7c-7.7-6.7-15.2-4.5-19-0.2c-5,5.7-3,12.6-0.1,18.4
	c2.6,5.2,3.2,8.7,1.1,11.2c-1.8,2.1-5.2,2.1-7.7-0.1c-3.1-2.7-4.5-9-4.7-9.4c-0.2-0.7-1-1.4-1.9-1.1l-4.4,1.5
	c-1.1,0.4-1.1,0.9-1,1.7c0.2,1.8,1.2,7.8,7.3,13.1c6.8,6,15.1,5.2,19.5,0.2c5.5-6.2,2.5-13.8-0.5-19.8c-2.5-5-2.9-8.1-1-10.4
	c1.4-1.6,4.5-2.1,7.2,0.3c2.6,2.3,4.2,8,4.4,8.5c0.2,0.9,1.3,1.2,2.2,0.9l4.3-1.2C438.8,99.9,439.4,99,439.1,98.3z M397.8,62.5
	c-2.3-1.3-4.9-0.5-6.1,1.5c-1.2,2.1-0.4,4.6,1.7,5.8c0.9,0.5,1.8,0.6,1.8,0.7c-2.2,3.9-6.9,4.6-7.6,4.7c-0.6,0.1-1,0.6-0.8,1.2
	l0.3,1.2c0.2,0.7,0.6,0.9,1.3,0.8c2.2-0.5,7.6-1.8,10.7-7.3C401.7,66.5,399.8,63.6,397.8,62.5z M311.4,145.8v1.9
	c0,1.1,0.9,1.9,1.9,1.9h71.6c1.1,0,1.9-0.9,1.9-1.9v-1.9c0-1.1-0.9-1.9-1.9-1.9h-71.6C312.2,143.9,311.4,144.7,311.4,145.8z
	 M373.2,56.3c-2.9-4.9-7.4-8.9-12.8-10.8c-12.1-4.2-25.2,2.2-29.4,14.3c-4.2,12.1,2.2,25.1,14.2,29.3c8.8,3.1,16.4,1.3,16.4,1.3
	c0.3-0.1,0.7-0.3,0.8-0.8l5.4-15.6c0.2-0.6-0.1-1.3-0.7-1.5l-11.7-4.1c-0.7-0.2-1.3,0.1-1.6,0.8l-1.6,4.8c-0.2,0.6,0.1,1.2,0.8,1.5
	l4.9,1.7l-1.8,5.1c-1.4,0.1-4.3,0.2-7.7-1c-7.6-2.6-11.4-11.1-8.8-18.6c2.6-7.6,10.9-12,18.5-9.4c3.3,1.2,6.1,3.5,7.9,6.7
	c0.4,0.7,0.9,0.9,1.6,0.5l5.1-2.6C373.3,57.7,373.5,57,373.2,56.3z M313.7,33.2l-5.9-0.8c-0.7-0.1-1.3,0.4-1.4,1.1l-3.5,26.3l-0.1,0
	l-22.7-31.7l-1.6-0.2c-0.6-0.1-1.3,0.4-1.3,1l-5.7,42.8c-0.1,0.6,0.4,1.3,1.1,1.4l5.8,0.8c0.7,0.1,1.3-0.4,1.4-1.1l3.6-27.4h0.1
	l22.7,32.8l1.5,0.2c0.6,0.1,1.3-0.3,1.4-1l5.7-42.8C314.8,33.9,314.3,33.3,313.7,33.2z M301,213v1.9c0,1.1,0.9,1.9,1.9,1.9h71.6
	c1.1,0,1.9-0.9,1.9-1.9V213c0-1.1-0.9-1.9-1.9-1.9h-71.6C301.9,211.1,301,212,301,213z M252.3,29c0-0.6-0.6-1.2-1.2-1.2l-6,0.1
	c-0.6,0-1.2,0.6-1.2,1.2l0.4,42.5c0,0.6,0.6,1.2,1.2,1.2l6-0.1c0.7,0,1.2-0.6,1.2-1.2L252.3,29z M230.1,66.5
	c-0.1-0.6-0.7-1.2-1.4-1.1l-16.3,1.8l-4-35.8c-0.1-0.7-0.7-1.2-1.3-1.1l-5.9,0.7c-0.7,0.1-1.2,0.7-1.1,1.3l4.7,42.3
	c0.1,0.6,0.6,1.2,1.3,1.1l23.4-2.6c0.7-0.1,1.1-0.7,1.1-1.3L230.1,66.5z M292.1,159.5c0-0.2,0-0.4,0-0.7c-0.3-23-19-41.4-42.1-41.4
	c-23,0-41.8,18.5-42.1,41.4v0.7c-4.8,0-8.7,3.9-8.7,8.7c0,4.8,3.9,8.7,8.7,8.7h84.2c4.8,0,8.7-3.9,8.7-8.7
	C300.8,163.4,296.9,159.5,292.1,159.5z M207.8,182.7l42.1,85.2l42.1-85.2H207.8z M123.5,213v1.9c0,1.1,0.9,1.9,1.9,1.9H197
	c1.1,0,1.9-0.9,1.9-1.9V213c0-1.1-0.9-1.9-1.9-1.9h-71.6C124.4,211.1,123.5,212,123.5,213z M113.2,145.8v1.9c0,1.1,0.9,1.9,1.9,1.9
	h71.6c1.1,0,1.9-0.9,1.9-1.9v-1.9c0-1.1-0.9-1.9-1.9-1.9h-71.6C114,143.9,113.2,144.7,113.2,145.8z M188,76.5l-12.8-13.4
	c4.8-3.6,7.3-9.3,5.7-15c-2-7.4-9.7-11.7-17.2-9.6L146,43.4c-0.7,0.2-1,0.9-0.8,1.5l11.3,41c0.2,0.6,0.8,1,1.5,0.8l5.7-1.6
	c0.6-0.2,1-0.9,0.8-1.5l-4.4-15.8L167,66l12.8,14.1c0.2,0.2,0.6,0.4,1.2,0.3l6.5-1.8C188.5,78.3,188.7,77.2,188,76.5z M168.5,58.4
	l-10.1,2.8L155,48.9l10.1-2.8c3.3-0.9,6.9,1,7.8,4.3C173.8,53.9,171.8,57.5,168.5,58.4z M144.3,89.3l-37.8-28.8
	c-0.4-0.2-0.7-0.4-1.3-0.1l-0.6,0.3c-0.5,0.3-0.7,0.7-0.7,1.1l2.7,47.5c0.1,0.9,0.9,1.4,1.8,1l4.9-2.6c0.9-0.5,1.1-1.3,1-2L114,98
	l17-9l6,4.6c0.8,0.6,1.4,0.7,2.2,0.3l4.9-2.6C145,90.8,145.1,89.8,144.3,89.3z M113.4,90.3l-1.1-15.4l0.2-0.1l12.3,9.5L113.4,90.3z
	 M91.4,107.6L70.7,85.4c-0.4-0.5-1.2-0.5-1.7-0.1l-4.4,4.1c-0.5,0.5-0.5,1.3-0.1,1.7l20.7,22.2c3,3.2,2.5,6.5,0.7,8.2
	c-1.6,1.5-3.3,1.5-4.5,1.4c-0.8,0-1.4,0.3-1.5,1.3l-0.1,4.8c0,0.6,0.4,1.1,1,1.3c1.7,0.2,6.3,0.6,10.3-3.2
	C96.6,121.9,97.5,114.1,91.4,107.6z M46.6,178.9v1.9c0,1.1,0.9,1.9,1.9,1.9h131c1.1,0,1.9-0.9,1.9-1.9v-1.9c0-1.1-0.9-1.9-1.9-1.9
	h-131C47.4,177,46.6,177.8,46.6,178.9z M106.1,243c-2.9-2.4-6.6-3.7-10.3-3.7c-5,0-9.6,2.2-12.8,6.1c-5.7,7-4.5,17.3,2.5,23
	c2.9,2.3,6.3,3.6,10,3.6c0.5,0,1,0,1.4-0.1c0.5-0.1,1-0.4,1.3-0.8c0.3-0.4,0.4-0.8,0.2-1.3l-0.2-1.6v-0.1l0-0.1
	c-0.2-0.7-0.9-1.2-1.8-1.2c-2.9-0.1-5.2-0.3-7.8-2.4c-4.7-3.8-5.4-10.9-1.4-15.7c2.2-2.7,5.5-4.3,8.9-4.3c2.5,0,4.8,0.8,6.7,2.4
	c2,1.6,3.5,4.3,4,7.1c0.1,1.4,1.2,1.6,1.5,1.6c0.1,0,0.2,0,0.4,0l1.6-0.2c1-0.1,1.7-1,1.6-2C111.1,248.7,109.3,245.6,106.1,243z
	 M142.4,264.9l-1.5-0.7c-0.2-0.1-0.5-0.2-0.8-0.2c-0.7,0-1.3,0.4-1.6,1l-8,16.1c-1.4,2.8-3.8,4.5-6.5,4.5c-1.1,0-2.2-0.3-3.4-0.8
	c-1.9-1-3.2-2.4-3.7-4.3c-0.5-1.8-0.2-3.9,0.8-5.8l8-16c0.2-0.4,0.2-0.9,0.1-1.4c-0.2-0.4-0.5-0.8-0.9-1l-1.5-0.7
	c-0.2-0.1-0.5-0.2-0.8-0.2c-0.7,0-1.3,0.4-1.6,1l-8.1,16.2c-1.5,3.1-1.9,6.4-0.9,9.4c1,3.1,3.2,5.6,6.3,7.2c1.9,0.9,3.8,1.4,5.8,1.4
	c4.6,0,8.6-2.6,10.8-7l8.1-16.2C143.7,266.4,143.3,265.3,142.4,264.9z M170,276.6c-0.3-0.4-2.7-3.3-6.7-4.6
	c-1.3-0.4-2.6-0.7-3.9-0.7c-4.5,0-7.4,2.9-8.3,5.7c-1.8,5.5,1.1,8.6,4.7,11.8c4.2,3.6,5.5,5.6,4.8,7.7c-0.5,1.5-2,2.4-3.8,2.4
	c-0.6,0-1.3-0.1-1.9-0.3c-2.7-0.9-4.5-3.4-5.3-4.8l-0.1-0.1c-0.5-0.8-1.1-0.9-1.5-0.9c-0.6,0-1.1,0.3-1.4,0.5
	c-0.1,0.1-0.3,0.2-0.4,0.3c-0.1,0.1-0.3,0.2-0.4,0.3l-0.1,0l-0.1,0c-1.3,1.1-0.7,2.3-0.4,2.7c0.5,0.8,3,4.9,8.1,6.5
	c1.2,0.4,2.5,0.6,3.7,0.6c4.2,0,7.6-2.2,8.7-5.7c1.8-5.5-1.9-9.2-6.4-13c-3.1-2.6-4-4.4-3.4-6.5c0.4-1.1,1.6-2.4,3.7-2.4
	c0.7,0,1.4,0.1,2.2,0.4c0.9,0.3,2.4,1.1,4.2,3.2l0.1,0.1c0.5,0.5,1,0.7,1.5,0.7c0.5,0,0.9-0.2,1.4-0.6c0.1-0.1,0.2-0.2,0.4-0.3
	c0.1-0.1,0.2-0.2,0.3-0.3c0.7-0.6,0.8-1.1,0.8-1.5C170.5,277.4,170.3,276.9,170,276.6z M200.6,282.1c-0.2-0.4-0.7-0.7-1.1-0.8
	l-17.8-3.6c-0.1,0-0.2,0-0.3,0c-0.8,0-1.6,0.6-1.7,1.4l-0.2,1.2c-0.1,0.5,0,0.9,0.2,1.3c0.3,0.4,0.7,0.7,1.2,0.8l6.3,1.3l-5.1,24.8
	c-0.1,0.5,0,0.9,0.3,1.3c0.3,0.4,0.7,0.7,1.1,0.7l1.6,0.3c0.1,0,0.2,0,0.3,0c0.8,0,1.6-0.6,1.7-1.4l5.1-24.8l6.4,1.3
	c0.1,0,0.2,0,0.4,0c0.8,0,1.6-0.6,1.7-1.4l0.2-1.2C200.9,283,200.8,282.5,200.6,282.1z M230.8,314.6l-10-30
	c-0.3-0.7-0.8-1.1-1.5-1.2l-0.4,0c-0.1,0-0.1,0-0.2,0c-0.6,0-1.1,0.3-1.5,0.9l-15.9,27.4c-0.3,0.5-0.3,1.2-0.1,1.7
	c0.3,0.5,0.8,0.9,1.4,0.9l1.7,0.2l0,0h0.1c0.7,0,1.2-0.4,1.5-0.9l3.5-6.1l13.9,1.4l2.3,6.7c0.1,0.5,0.7,1.1,1.5,1.2l1.7,0.2
	c0.1,0,0.1,0,0.2,0c0.6,0,1.1-0.3,1.4-0.7C230.9,315.7,231,315.1,230.8,314.6z M212.1,303l6-10.6c0.6,1.9,1.2,3.8,1.9,5.7
	c0.6,2,1.3,4,1.9,5.9L212.1,303z M260.5,304.5c3.6-1.9,5.9-5.4,5.8-9.3c-0.1-5.6-4.6-9.9-10.3-9.9h-0.1l-11.1,0.2
	c-0.5,0-0.9,0.2-1.2,0.5c-0.3,0.3-0.5,0.8-0.5,1.3l0.4,28.3c0,1,0.8,1.7,1.8,1.7l1.7,0c1,0,1.8-0.8,1.8-1.8l-0.1-10l6.6-0.1
	l5.6,10.7c0.2,0.4,0.7,0.9,1.5,0.9l2.2,0c0.7,0,1.2-0.3,1.5-0.9c0.3-0.5,0.3-1.2,0-1.8L260.5,304.5z M255.9,300.7l-7.3,0.1
	l-0.1-10.4l7.3-0.1c2.8,0,5.2,2.3,5.3,5C261.1,298.3,258.8,300.7,255.9,300.7z M306.6,296.5c-1-7.8-7.8-13.8-15.8-13.8
	c-0.7,0-1.4,0-2.1,0.1l-9.5,1.3c-0.5,0.1-0.9,0.3-1.2,0.7c-0.2,0.4-0.4,0.8-0.3,1.3l3.8,28.1c0.1,0.9,0.9,1.6,1.7,1.6h0.1l0.2,0
	l9.5-1.3c4.2-0.6,8-2.7,10.6-6.1C306.1,304.9,307.2,300.7,306.6,296.5z M291.6,309.7l-5.4,0.7l-3-22l5.4-0.7
	c0.6-0.1,1.2-0.1,1.7-0.1c5.7,0,10,3.9,10.8,9.6C302.1,303.7,298.1,308.9,291.6,309.7z M365.1,290.2c-0.2-0.4-0.5-0.7-1-0.9
	l-1.5-0.6l-0.1,0l-0.1,0c-0.1,0-0.3-0.1-0.4-0.1c-0.4,0-1,0.1-1.6,1c-1.6,2.4-3,4.2-6.1,5.4c-1.2,0.4-2.4,0.6-3.6,0.6
	c-4.7,0-8.9-3.1-10.5-7.6c-2.1-5.9,0.8-12.4,6.5-14.4c1.1-0.4,2.3-0.6,3.6-0.6c1.5,0,3.1,0.3,4.5,0.9c0.3,0.1,0.6,0.2,0.9,0.2
	c0.3,0,1.1-0.1,1.4-1.1l0.7-1.4c0.2-0.4,0.2-1,0-1.4c-0.2-0.4-0.5-0.8-0.9-1c-2.3-0.9-4.4-1.3-6.4-1.3c-1.8,0-3.6,0.3-5.4,1
	c-4.1,1.5-7.5,4.5-9.3,8.4c-1.9,4-2.1,8.4-0.6,12.6c2.3,6.5,8.5,10.9,15.4,10.9c1.9,0,3.8-0.3,5.6-1c4-1.4,7.1-4.2,8.9-7.9
	C365.3,291.3,365.3,290.7,365.1,290.2z M395.6,266.7l-9-15.7c-0.3-0.5-0.9-0.9-1.6-0.9c-0.3,0-0.6,0.1-0.9,0.2l-1.4,0.8
	c-0.4,0.2-0.7,0.6-0.8,1.1c-0.1,0.5-0.1,1,0.2,1.4l8.9,15.6c2.3,4,1.3,8.1-2.5,10.2c-1.2,0.7-2.4,1-3.5,1c-2.6,0-4.9-1.5-6.4-4.2
	l-8.8-15.5c-0.3-0.6-0.9-0.9-1.6-0.9c-0.3,0-0.6,0.1-0.9,0.2l-1.4,0.8c-0.4,0.2-0.7,0.6-0.8,1.1c-0.1,0.5-0.1,1,0.2,1.3l9,15.7
	c2.3,4,6.3,6.5,10.5,6.5c2.1,0,4.2-0.6,6.3-1.7c3-1.7,5.2-4.4,6-7.5C397.8,273,397.3,269.7,395.6,266.7z M412.7,254.7l4.5-4.1
	c2.1-1.9,3.2-4.5,3.4-7.3c0.1-2.8-0.9-5.5-2.8-7.6c-1.9-2.1-4.7-3.3-7.7-3.3c-2.7,0-5.2,1-7.2,2.8l-7,6.4c-0.4,0.3-0.6,0.8-0.6,1.3
	c0,0.5,0.2,0.9,0.5,1.2L415,265c0.3,0.4,0.8,0.6,1.3,0.6c0.4,0,0.9-0.2,1.2-0.5l1.2-1.1c0.7-0.6,0.7-1.8,0.1-2.5L412.7,254.7z
	 M401.9,243.1l4.3-4c1.1-1,2.5-1.5,3.9-1.5c1.4,0,2.7,0.6,3.7,1.6c2.1,2.3,2,5.8-0.3,7.9l-4.3,4L401.9,243.1z M318.7,178.9v1.9
	c0,1.1,0.9,1.9,1.9,1.9h131c1.1,0,1.9-0.9,1.9-1.9v-1.9c0-1.1-0.9-1.9-1.9-1.9h-131C319.5,177,318.7,177.8,318.7,178.9z
	 M250.6,342.9C113.4,342.9,1.9,266,1.9,171.4S113.4,0,250.6,0c137.1,0,248.7,76.9,248.7,171.4S387.7,342.9,250.6,342.9z M250.6,5.8
	C116.6,5.8,7.6,80.1,7.6,171.4s109,165.7,242.9,165.7c134,0,242.9-74.3,242.9-165.7S384.5,5.8,250.6,5.8z"/>
</svg>
