<?xml version="1.0" encoding="UTF-8"?>
<svg id="Layer_1" xmlns="http://www.w3.org/2000/svg" version="1.1" viewBox="0 0 500 342.9">
  <!-- Generator: Adobe Illustrator 29.5.1, SVG Export Plug-In . SVG Version: 2.1.0 Build 141)  -->
  <defs>
    <style>
      .st0 {
        fill: #fff;
      }
    </style>
  </defs>
  <path class="st0" d="M439.1,98.3c-.3-1.6-1.9-7.4-6.8-11.7-7.7-6.7-15.2-4.5-19-.2-5,5.7-3,12.6-.1,18.4,2.6,5.2,3.2,8.7,1.1,11.2-1.8,2.1-5.2,2.1-7.7-.1-3.1-2.7-4.5-9-4.7-9.4-.2-.7-1-1.4-1.9-1.1l-4.4,1.5c-1.1.4-1.1.9-1,1.7.2,1.8,1.2,7.8,7.3,13.1,6.8,6,15.1,5.2,19.5.2,5.5-6.2,2.5-13.8-.5-19.8-2.5-5-2.9-8.1-1-10.4,1.4-1.6,4.5-2.1,7.2.3,2.6,2.3,4.2,8,4.4,8.5.2.9,1.3,1.2,2.2.9l4.3-1.2c.8-.3,1.4-1.2,1.1-1.9ZM397.8,62.5c-2.3-1.3-4.9-.5-6.1,1.5-1.2,2.1-.4,4.6,1.7,5.8.9.5,1.8.6,1.8.7-2.2,3.9-6.9,4.6-7.6,4.7-.6.1-1,.6-.8,1.2l.3,1.2c.2.7.6.9,1.3.8,2.2-.5,7.6-1.8,10.7-7.3,2.6-4.6.7-7.5-1.3-8.6ZM311.4,145.8v1.9c0,1.1.9,1.9,1.9,1.9h71.6c1.1,0,1.9-.9,1.9-1.9v-1.9c0-1.1-.9-1.9-1.9-1.9h-71.6c-1.1,0-1.9.8-1.9,1.9ZM373.2,56.3c-2.9-4.9-7.4-8.9-12.8-10.8-12.1-4.2-25.2,2.2-29.4,14.3-4.2,12.1,2.2,25.1,14.2,29.3,8.8,3.1,16.4,1.3,16.4,1.3.3-.1.7-.3.8-.8l5.4-15.6c.2-.6-.1-1.3-.7-1.5l-11.7-4.1c-.7-.2-1.3.1-1.6.8l-1.6,4.8c-.2.6.1,1.2.8,1.5l4.9,1.7-1.8,5.1c-1.4.1-4.3.2-7.7-1-7.6-2.6-11.4-11.1-8.8-18.6,2.6-7.6,10.9-12,18.5-9.4,3.3,1.2,6.1,3.5,7.9,6.7.4.7.9.9,1.6.5l5.1-2.6c.6-.2.8-.9.5-1.6ZM313.7,33.2l-5.9-.8c-.7-.1-1.3.4-1.4,1.1l-3.5,26.3h-.1l-22.7-31.7-1.6-.2c-.6-.1-1.3.4-1.3,1l-5.7,42.8c-.1.6.4,1.3,1.1,1.4l5.8.8c.7.1,1.3-.4,1.4-1.1l3.6-27.4h.1l22.7,32.8,1.5.2c.6.1,1.3-.3,1.4-1l5.7-42.8c0-.7-.5-1.3-1.1-1.4ZM301,213v1.9c0,1.1.9,1.9,1.9,1.9h71.6c1.1,0,1.9-.9,1.9-1.9v-1.9c0-1.1-.9-1.9-1.9-1.9h-71.6c-1,0-1.9.9-1.9,1.9ZM252.3,29c0-.6-.6-1.2-1.2-1.2l-6,.1c-.6,0-1.2.6-1.2,1.2l.4,42.5c0,.6.6,1.2,1.2,1.2l6-.1c.7,0,1.2-.6,1.2-1.2l-.4-42.5ZM230.1,66.5c-.1-.6-.7-1.2-1.4-1.1l-16.3,1.8-4-35.8c-.1-.7-.7-1.2-1.3-1.1l-5.9.7c-.7.1-1.2.7-1.1,1.3l4.7,42.3c.1.6.6,1.2,1.3,1.1l23.4-2.6c.7-.1,1.1-.7,1.1-1.3l-.5-5.3ZM292.1,159.5v-.7c-.3-23-19-41.4-42.1-41.4s-41.8,18.5-42.1,41.4v.7c-4.8,0-8.7,3.9-8.7,8.7s3.9,8.7,8.7,8.7h84.2c4.8,0,8.7-3.9,8.7-8.7s-3.9-8.7-8.7-8.7ZM211.45,184.12l36.63,79.82c.71,1.55,2.92,1.55,3.64,0l36.63-79.82c.3-.66-.18-1.42-.91-1.42h-75.08c-.73,0-1.21.75-.91,1.42ZM123.5,213v1.9c0,1.1.9,1.9,1.9,1.9h71.6c1.1,0,1.9-.9,1.9-1.9v-1.9c0-1.1-.9-1.9-1.9-1.9h-71.6c-1,0-1.9.9-1.9,1.9ZM113.2,145.8v1.9c0,1.1.9,1.9,1.9,1.9h71.6c1.1,0,1.9-.9,1.9-1.9v-1.9c0-1.1-.9-1.9-1.9-1.9h-71.6c-1.1,0-1.9.8-1.9,1.9ZM188,76.5l-12.8-13.4c4.8-3.6,7.3-9.3,5.7-15-2-7.4-9.7-11.7-17.2-9.6l-17.7,4.9c-.7.2-1,.9-.8,1.5l11.3,41c.2.6.8,1,1.5.8l5.7-1.6c.6-.2,1-.9.8-1.5l-4.4-15.8,6.9-1.8,12.8,14.1c.2.2.6.4,1.2.3l6.5-1.8c1-.3,1.2-1.4.5-2.1ZM168.5,58.4l-10.1,2.8-3.4-12.3,10.1-2.8c3.3-.9,6.9,1,7.8,4.3.9,3.5-1.1,7.1-4.4,8ZM144.3,89.3l-37.8-28.8c-.4-.2-.7-.4-1.3-.1l-.6.3c-.5.3-.7.7-.7,1.1l2.7,47.5c.1.9.9,1.4,1.8,1l4.9-2.6c.9-.5,1.1-1.3,1-2l-.3-7.7,17-9,6,4.6c.8.6,1.4.7,2.2.3l4.9-2.6c.9-.5,1-1.5.2-2ZM113.4,90.3l-1.1-15.4.2-.1,12.3,9.5-11.4,6ZM91.4,107.6l-20.7-22.2c-.4-.5-1.2-.5-1.7-.1l-4.4,4.1c-.5.5-.5,1.3-.1,1.7l20.7,22.2c3,3.2,2.5,6.5.7,8.2-1.6,1.5-3.3,1.5-4.5,1.4-.8,0-1.4.3-1.5,1.3l-.1,4.8c0,.6.4,1.1,1,1.3,1.7.2,6.3.6,10.3-3.2,5.5-5.2,6.4-13,.3-19.5ZM46.6,178.9v1.9c0,1.1.9,1.9,1.9,1.9h131c1.1,0,1.9-.9,1.9-1.9v-1.9c0-1.1-.9-1.9-1.9-1.9H48.5c-1.1,0-1.9.8-1.9,1.9ZM106.1,243c-2.9-2.4-6.6-3.7-10.3-3.7-5,0-9.6,2.2-12.8,6.1-5.7,7-4.5,17.3,2.5,23,2.9,2.3,6.3,3.6,10,3.6.5,0,1,0,1.4-.1.5-.1,1-.4,1.3-.8s.4-.8.2-1.3l-.2-1.6v-.2c-.2-.7-.9-1.2-1.8-1.2-2.9-.1-5.2-.3-7.8-2.4-4.7-3.8-5.4-10.9-1.4-15.7,2.2-2.7,5.5-4.3,8.9-4.3,2.5,0,4.8.8,6.7,2.4,2,1.6,3.5,4.3,4,7.1.1,1.4,1.2,1.6,1.5,1.6h.4l1.6-.2c1-.1,1.7-1,1.6-2-.8-4.6-2.6-7.7-5.8-10.3ZM142.4,264.9l-1.5-.7c-.2-.1-.5-.2-.8-.2-.7,0-1.3.4-1.6,1l-8,16.1c-1.4,2.8-3.8,4.5-6.5,4.5-1.1,0-2.2-.3-3.4-.8-1.9-1-3.2-2.4-3.7-4.3-.5-1.8-.2-3.9.8-5.8l8-16c.2-.4.2-.9.1-1.4-.2-.4-.5-.8-.9-1l-1.5-.7c-.2-.1-.5-.2-.8-.2-.7,0-1.3.4-1.6,1l-8.1,16.2c-1.5,3.1-1.9,6.4-.9,9.4,1,3.1,3.2,5.6,6.3,7.2,1.9.9,3.8,1.4,5.8,1.4,4.6,0,8.6-2.6,10.8-7l8.1-16.2c.7-1,.3-2.1-.6-2.5ZM170,276.6c-.3-.4-2.7-3.3-6.7-4.6-1.3-.4-2.6-.7-3.9-.7-4.5,0-7.4,2.9-8.3,5.7-1.8,5.5,1.1,8.6,4.7,11.8,4.2,3.6,5.5,5.6,4.8,7.7-.5,1.5-2,2.4-3.8,2.4-.6,0-1.3-.1-1.9-.3-2.7-.9-4.5-3.4-5.3-4.8l-.1-.1c-.5-.8-1.1-.9-1.5-.9-.6,0-1.1.3-1.4.5-.1.1-.3.2-.4.3-.1.1-.3.2-.4.3h-.2c-1.3,1.1-.7,2.3-.4,2.7.5.8,3,4.9,8.1,6.5,1.2.4,2.5.6,3.7.6,4.2,0,7.6-2.2,8.7-5.7,1.8-5.5-1.9-9.2-6.4-13-3.1-2.6-4-4.4-3.4-6.5.4-1.1,1.6-2.4,3.7-2.4.7,0,1.4.1,2.2.4.9.3,2.4,1.1,4.2,3.2l.1.1c.5.5,1,.7,1.5.7s.9-.2,1.4-.6c.1-.1.2-.2.4-.3.1-.1.2-.2.3-.3.7-.6.8-1.1.8-1.5,0-.4-.2-.9-.5-1.2ZM200.6,282.1c-.2-.4-.7-.7-1.1-.8l-17.8-3.6h-.3c-.8,0-1.6.6-1.7,1.4l-.2,1.2c-.1.5,0,.9.2,1.3.3.4.7.7,1.2.8l6.3,1.3-5.1,24.8c-.1.5,0,.9.3,1.3s.7.7,1.1.7l1.6.3h.3c.8,0,1.6-.6,1.7-1.4l5.1-24.8,6.4,1.3h.4c.8,0,1.6-.6,1.7-1.4l.2-1.2c0-.3-.1-.8-.3-1.2ZM230.8,314.6l-10-30c-.3-.7-.8-1.1-1.5-1.2h-.6c-.6,0-1.1.3-1.5.9l-15.9,27.4c-.3.5-.3,1.2-.1,1.7.3.5.8.9,1.4.9l1.7.2h.1c.7,0,1.2-.4,1.5-.9l3.5-6.1,13.9,1.4,2.3,6.7c.1.5.7,1.1,1.5,1.2l1.7.2h.2c.6,0,1.1-.3,1.4-.7.5-.6.6-1.2.4-1.7ZM212.1,303l6-10.6c.6,1.9,1.2,3.8,1.9,5.7.6,2,1.3,4,1.9,5.9l-9.8-1ZM260.5,304.5c3.6-1.9,5.9-5.4,5.8-9.3-.1-5.6-4.6-9.9-10.3-9.9h-.1l-11.1.2c-.5,0-.9.2-1.2.5s-.5.8-.5,1.3l.4,28.3c0,1,.8,1.7,1.8,1.7h1.7c1,0,1.8-.8,1.8-1.8l-.1-10,6.6-.1,5.6,10.7c.2.4.7.9,1.5.9h2.2c.7,0,1.2-.3,1.5-.9.3-.5.3-1.2,0-1.8l-5.6-9.8ZM255.9,300.7l-7.3.1-.1-10.4,7.3-.1c2.8,0,5.2,2.3,5.3,5,0,3-2.3,5.4-5.2,5.4ZM306.6,296.5c-1-7.8-7.8-13.8-15.8-13.8-.7,0-1.4,0-2.1.1l-9.5,1.3c-.5.1-.9.3-1.2.7-.2.4-.4.8-.3,1.3l3.8,28.1c.1.9.9,1.6,1.7,1.6h.3l9.5-1.3c4.2-.6,8-2.7,10.6-6.1,2.5-3.5,3.6-7.7,3-11.9ZM291.6,309.7l-5.4.7-3-22,5.4-.7c.6-.1,1.2-.1,1.7-.1,5.7,0,10,3.9,10.8,9.6,1,6.5-3,11.7-9.5,12.5ZM365.1,290.2c-.2-.4-.5-.7-1-.9l-1.5-.6h-.2c-.1,0-.3-.1-.4-.1-.4,0-1,.1-1.6,1-1.6,2.4-3,4.2-6.1,5.4-1.2.4-2.4.6-3.6.6-4.7,0-8.9-3.1-10.5-7.6-2.1-5.9.8-12.4,6.5-14.4,1.1-.4,2.3-.6,3.6-.6,1.5,0,3.1.3,4.5.9.3.1.6.2.9.2s1.1-.1,1.4-1.1l.7-1.4c.2-.4.2-1,0-1.4s-.5-.8-.9-1c-2.3-.9-4.4-1.3-6.4-1.3-1.8,0-3.6.3-5.4,1-4.1,1.5-7.5,4.5-9.3,8.4-1.9,4-2.1,8.4-.6,12.6,2.3,6.5,8.5,10.9,15.4,10.9,1.9,0,3.8-.3,5.6-1,4-1.4,7.1-4.2,8.9-7.9.2-.6.2-1.2,0-1.7ZM395.6,266.7l-9-15.7c-.3-.5-.9-.9-1.6-.9-.3,0-.6.1-.9.2l-1.4.8c-.4.2-.7.6-.8,1.1-.1.5-.1,1,.2,1.4l8.9,15.6c2.3,4,1.3,8.1-2.5,10.2-1.2.7-2.4,1-3.5,1-2.6,0-4.9-1.5-6.4-4.2l-8.8-15.5c-.3-.6-.9-.9-1.6-.9-.3,0-.6.1-.9.2l-1.4.8c-.4.2-.7.6-.8,1.1-.1.5-.1,1,.2,1.3l9,15.7c2.3,4,6.3,6.5,10.5,6.5,2.1,0,4.2-.6,6.3-1.7,3-1.7,5.2-4.4,6-7.5.7-3.2.2-6.5-1.5-9.5ZM412.7,254.7l4.5-4.1c2.1-1.9,3.2-4.5,3.4-7.3.1-2.8-.9-5.5-2.8-7.6s-4.7-3.3-7.7-3.3c-2.7,0-5.2,1-7.2,2.8l-7,6.4c-.4.3-.6.8-.6,1.3s.2.9.5,1.2l19.2,20.9c.3.4.8.6,1.3.6.4,0,.9-.2,1.2-.5l1.2-1.1c.7-.6.7-1.8.1-2.5l-6.1-6.8ZM401.9,243.1l4.3-4c1.1-1,2.5-1.5,3.9-1.5s2.7.6,3.7,1.6c2.1,2.3,2,5.8-.3,7.9l-4.3,4-7.3-8ZM318.7,178.9v1.9c0,1.1.9,1.9,1.9,1.9h131c1.1,0,1.9-.9,1.9-1.9v-1.9c0-1.1-.9-1.9-1.9-1.9h-131c-1.1,0-1.9.8-1.9,1.9ZM250.6,342.9C113.4,342.9,1.9,266,1.9,171.4S113.4,0,250.6,0s248.7,76.9,248.7,171.4-111.6,171.5-248.7,171.5ZM250.6,5.8C116.6,5.8,7.6,80.1,7.6,171.4s109,165.7,242.9,165.7,242.9-74.3,242.9-165.7S384.5,5.8,250.6,5.8Z"/>
</svg>